<?xml version="1.0" encoding="UTF-8"?>
<svg width="650px" height="1300px" viewBox="0 0 650 1300" version="1.1" xmlns="http://www.w3.org/2000/svg" xmlns:xlink="http://www.w3.org/1999/xlink">
    <!-- Generator: Sketch 53.2 (72643) - https://sketchapp.com -->
    <title>iPhone XS/Silver@4x</title>
    <desc>Created with Sketch.</desc>
    <defs>
        <path d="M110.58953,0.00114898506 C34.7720371,0.00114898506 0.00231660232,35.9473882 0.00231660232,110.586874 L0.00231660232,1179.41542 C0.00231660232,1254.05491 34.7720371,1290.00115 110.58953,1290.00115 L523.415103,1290.00115 C596.760957,1290.00115 634.002317,1251.52062 634.002317,1179.41542 L634.002317,110.586874 C634.002317,35.9473882 599.232596,0.00114898506 523.415103,0.00114898506 L110.58953,0.00114898506 Z" id="path-1"></path>
        <filter x="-0.5%" y="-0.2%" width="100.9%" height="100.5%" filterUnits="objectBoundingBox" id="filter-2">
            <feMorphology radius="1" operator="erode" in="SourceAlpha" result="shadowSpreadInner1"></feMorphology>
            <feGaussianBlur stdDeviation="1" in="shadowSpreadInner1" result="shadowBlurInner1"></feGaussianBlur>
            <feOffset dx="0" dy="0" in="shadowBlurInner1" result="shadowOffsetInner1"></feOffset>
            <feComposite in="shadowOffsetInner1" in2="SourceAlpha" operator="arithmetic" k2="-1" k3="1" result="shadowInnerInner1"></feComposite>
            <feColorMatrix values="0 0 0 0 0   0 0 0 0 0   0 0 0 0 0  0 0 0 0.5 0" type="matrix" in="shadowInnerInner1"></feColorMatrix>
        </filter>
        <linearGradient x1="50%" y1="0%" x2="50%" y2="100%" id="linearGradient-3">
            <stop stop-color="#5F5F5F" offset="0%"></stop>
            <stop stop-color="#222222" offset="1.01238%"></stop>
            <stop stop-color="#252525" offset="100%"></stop>
        </linearGradient>
        <linearGradient x1="50%" y1="0%" x2="50%" y2="100%" id="linearGradient-4">
            <stop stop-color="#6D6D6D" offset="0%"></stop>
            <stop stop-color="#000000" offset="1.61167607%"></stop>
            <stop stop-color="#000000" offset="98.4696655%"></stop>
            <stop stop-color="#5C5C5C" offset="100%"></stop>
        </linearGradient>
        <path d="M110.740741,13 L524.259259,13 C592.447285,13 622,42.5130916 622,110.422803 L622,1177.5772 C622,1242.98271 589.945579,1275 524.259259,1275 L110.740741,1275 C42.5527154,1275 13,1245.48691 13,1177.5772 L13,110.422803 C13,42.5130916 42.5527154,13 110.740741,13 Z" id="path-5"></path>
        <filter x="-0.1%" y="-0.1%" width="100.2%" height="100.2%" filterUnits="objectBoundingBox" id="filter-6">
            <feOffset dx="0" dy="1" in="SourceAlpha" result="shadowOffsetOuter1"></feOffset>
            <feColorMatrix values="0 0 0 0 0   0 0 0 0 0   0 0 0 0 0  0 0 0 0.5 0" type="matrix" in="shadowOffsetOuter1" result="shadowMatrixOuter1"></feColorMatrix>
            <feOffset dx="0" dy="-1" in="SourceAlpha" result="shadowOffsetOuter2"></feOffset>
            <feColorMatrix values="0 0 0 0 0   0 0 0 0 0   0 0 0 0 0  0 0 0 0.5 0" type="matrix" in="shadowOffsetOuter2" result="shadowMatrixOuter2"></feColorMatrix>
            <feMerge>
                <feMergeNode in="shadowMatrixOuter1"></feMergeNode>
                <feMergeNode in="shadowMatrixOuter2"></feMergeNode>
            </feMerge>
        </filter>
        <path d="M562.017859,0.899999619 C592.994774,14.13264 607,42.691617 607,89.4843282 L607,1156.41766 C607,1200.42255 592.516911,1229.31076 563.071095,1243.49998 C566.195539,1234.65487 595.997691,1220.0796 595.997691,1161.41266 C595.997691,1133.02501 595.997691,116.137369 595.997691,84.3937145 C595.997691,22.5066902 561.098278,8.16962698 562.017859,0.899999619 Z" id="path-7"></path>
        <filter x="-7.8%" y="-0.3%" width="115.6%" height="100.6%" filterUnits="objectBoundingBox" id="filter-8">
            <feGaussianBlur stdDeviation="2" in="SourceAlpha" result="shadowBlurInner1"></feGaussianBlur>
            <feOffset dx="3" dy="0" in="shadowBlurInner1" result="shadowOffsetInner1"></feOffset>
            <feComposite in="shadowOffsetInner1" in2="SourceAlpha" operator="arithmetic" k2="-1" k3="1" result="shadowInnerInner1"></feComposite>
            <feColorMatrix values="0 0 0 0 0   0 0 0 0 0   0 0 0 0 0  0 0 0 0.6 0" type="matrix" in="shadowInnerInner1"></feColorMatrix>
        </filter>
        <path d="M0.0178587708,1 C30.994774,14.2458698 45,42.8333988 45,89.6728913 L45,1157.67289 C45,1201.72178 30.5169106,1230.63887 1.07109464,1244.84227 C4.19553947,1235.98832 33.9976914,1221.39848 33.9976914,1162.67289 C33.9976914,1134.25686 33.9976914,116.352579 33.9976914,84.5771882 C33.9976914,22.628292 -0.901721506,8.27689521 0.0178587708,1 Z" id="path-9"></path>
        <filter x="-7.8%" y="-0.3%" width="115.6%" height="100.6%" filterUnits="objectBoundingBox" id="filter-10">
            <feGaussianBlur stdDeviation="2" in="SourceAlpha" result="shadowBlurInner1"></feGaussianBlur>
            <feOffset dx="3" dy="0" in="shadowBlurInner1" result="shadowOffsetInner1"></feOffset>
            <feComposite in="shadowOffsetInner1" in2="SourceAlpha" operator="arithmetic" k2="-1" k3="1" result="shadowInnerInner1"></feComposite>
            <feColorMatrix values="0 0 0 0 0   0 0 0 0 0   0 0 0 0 0  0 0 0 0.6 0" type="matrix" in="shadowInnerInner1"></feColorMatrix>
        </filter>
        <path d="M3.17530263,210.932976 C2.14359423,211.212391 0.906422302,211.927916 0.245819654,212.944273 C0.109751784,213.153618 0.00212355212,213.815951 0.00212355212,214.007439 C0.00212355212,223.617412 0.00212355212,252.887839 0.00212355212,301.818718 C0.00212355212,302.023128 0.153614004,303.055778 0.24637091,303.306206 C0.780949017,304.749475 1.70978794,305.098625 3.17530263,305.932976 L4.98854782,305.932976 C4.98854782,303.303093 5.01909321,213.503777 4.98854782,210.932976 L3.17530263,210.932976 Z" id="path-11"></path>
        <filter x="-30.0%" y="-1.6%" width="160.0%" height="103.2%" filterUnits="objectBoundingBox" id="filter-12">
            <feOffset dx="1" dy="0" in="SourceAlpha" result="shadowOffsetInner1"></feOffset>
            <feComposite in="shadowOffsetInner1" in2="SourceAlpha" operator="arithmetic" k2="-1" k3="1" result="shadowInnerInner1"></feComposite>
            <feColorMatrix values="0 0 0 0 1   0 0 0 0 1   0 0 0 0 1  0 0 0 0.644842618 0" type="matrix" in="shadowInnerInner1" result="shadowMatrixInner1"></feColorMatrix>
            <feGaussianBlur stdDeviation="0.5" in="SourceAlpha" result="shadowBlurInner2"></feGaussianBlur>
            <feOffset dx="0" dy="2" in="shadowBlurInner2" result="shadowOffsetInner2"></feOffset>
            <feComposite in="shadowOffsetInner2" in2="SourceAlpha" operator="arithmetic" k2="-1" k3="1" result="shadowInnerInner2"></feComposite>
            <feColorMatrix values="0 0 0 0 0.384313725   0 0 0 0 0.388235294   0 0 0 0 0.388235294  0 0 0 1 0" type="matrix" in="shadowInnerInner2" result="shadowMatrixInner2"></feColorMatrix>
            <feGaussianBlur stdDeviation="0.5" in="SourceAlpha" result="shadowBlurInner3"></feGaussianBlur>
            <feOffset dx="0" dy="-2" in="shadowBlurInner3" result="shadowOffsetInner3"></feOffset>
            <feComposite in="shadowOffsetInner3" in2="SourceAlpha" operator="arithmetic" k2="-1" k3="1" result="shadowInnerInner3"></feComposite>
            <feColorMatrix values="0 0 0 0 0.384313725   0 0 0 0 0.388235294   0 0 0 0 0.388235294  0 0 0 1 0" type="matrix" in="shadowInnerInner3" result="shadowMatrixInner3"></feColorMatrix>
            <feMerge>
                <feMergeNode in="shadowMatrixInner1"></feMergeNode>
                <feMergeNode in="shadowMatrixInner2"></feMergeNode>
                <feMergeNode in="shadowMatrixInner3"></feMergeNode>
            </feMerge>
        </filter>
        <path d="M3.17530263,91.9329759 C2.14359423,92.2123908 0.906422302,92.9279159 0.245819654,93.9442734 C0.109751784,94.153618 0.00212355212,94.8159511 0.00212355212,95.0074388 C0.00212355212,104.617412 0.00212355212,133.887839 0.00212355212,182.818718 C0.00212355212,183.023128 0.153614004,184.055778 0.24637091,184.306206 C0.780949017,185.749475 1.70978794,186.098625 3.17530263,186.932976 L4.98854782,186.932976 C4.98854782,184.303093 5.01909321,94.5037767 4.98854782,91.9329759 L3.17530263,91.9329759 Z" id="path-13"></path>
        <filter x="-30.0%" y="-1.6%" width="160.0%" height="103.2%" filterUnits="objectBoundingBox" id="filter-14">
            <feOffset dx="1" dy="0" in="SourceAlpha" result="shadowOffsetInner1"></feOffset>
            <feComposite in="shadowOffsetInner1" in2="SourceAlpha" operator="arithmetic" k2="-1" k3="1" result="shadowInnerInner1"></feComposite>
            <feColorMatrix values="0 0 0 0 1   0 0 0 0 1   0 0 0 0 1  0 0 0 0.644842618 0" type="matrix" in="shadowInnerInner1" result="shadowMatrixInner1"></feColorMatrix>
            <feGaussianBlur stdDeviation="0.5" in="SourceAlpha" result="shadowBlurInner2"></feGaussianBlur>
            <feOffset dx="0" dy="2" in="shadowBlurInner2" result="shadowOffsetInner2"></feOffset>
            <feComposite in="shadowOffsetInner2" in2="SourceAlpha" operator="arithmetic" k2="-1" k3="1" result="shadowInnerInner2"></feComposite>
            <feColorMatrix values="0 0 0 0 0.384313725   0 0 0 0 0.388235294   0 0 0 0 0.388235294  0 0 0 1 0" type="matrix" in="shadowInnerInner2" result="shadowMatrixInner2"></feColorMatrix>
            <feGaussianBlur stdDeviation="0.5" in="SourceAlpha" result="shadowBlurInner3"></feGaussianBlur>
            <feOffset dx="0" dy="-2" in="shadowBlurInner3" result="shadowOffsetInner3"></feOffset>
            <feComposite in="shadowOffsetInner3" in2="SourceAlpha" operator="arithmetic" k2="-1" k3="1" result="shadowInnerInner3"></feComposite>
            <feColorMatrix values="0 0 0 0 0.384313725   0 0 0 0 0.388235294   0 0 0 0 0.388235294  0 0 0 1 0" type="matrix" in="shadowInnerInner3" result="shadowMatrixInner3"></feColorMatrix>
            <feMerge>
                <feMergeNode in="shadowMatrixInner1"></feMergeNode>
                <feMergeNode in="shadowMatrixInner2"></feMergeNode>
                <feMergeNode in="shadowMatrixInner3"></feMergeNode>
            </feMerge>
        </filter>
        <path d="M3.17530263,0.932975871 C1.42280422,0.932975871 0.00212355212,2.49997925 0.00212355212,4.43297587 L0.00212355212,47.4329759 C0.00212355212,49.3659725 1.42280422,50.9329759 3.17530263,50.9329759 L4.98854782,50.9329759 C4.98854782,48.3030931 5.01909321,3.50377665 4.98854782,0.932975871 L3.17530263,0.932975871 Z" id="path-15"></path>
        <filter x="-30.0%" y="-3.0%" width="160.0%" height="106.0%" filterUnits="objectBoundingBox" id="filter-16">
            <feOffset dx="1" dy="0" in="SourceAlpha" result="shadowOffsetInner1"></feOffset>
            <feComposite in="shadowOffsetInner1" in2="SourceAlpha" operator="arithmetic" k2="-1" k3="1" result="shadowInnerInner1"></feComposite>
            <feColorMatrix values="0 0 0 0 1   0 0 0 0 1   0 0 0 0 1  0 0 0 0.644842618 0" type="matrix" in="shadowInnerInner1" result="shadowMatrixInner1"></feColorMatrix>
            <feGaussianBlur stdDeviation="0.5" in="SourceAlpha" result="shadowBlurInner2"></feGaussianBlur>
            <feOffset dx="0" dy="2" in="shadowBlurInner2" result="shadowOffsetInner2"></feOffset>
            <feComposite in="shadowOffsetInner2" in2="SourceAlpha" operator="arithmetic" k2="-1" k3="1" result="shadowInnerInner2"></feComposite>
            <feColorMatrix values="0 0 0 0 0.384313725   0 0 0 0 0.388235294   0 0 0 0 0.388235294  0 0 0 1 0" type="matrix" in="shadowInnerInner2" result="shadowMatrixInner2"></feColorMatrix>
            <feGaussianBlur stdDeviation="0.5" in="SourceAlpha" result="shadowBlurInner3"></feGaussianBlur>
            <feOffset dx="0" dy="-2" in="shadowBlurInner3" result="shadowOffsetInner3"></feOffset>
            <feComposite in="shadowOffsetInner3" in2="SourceAlpha" operator="arithmetic" k2="-1" k3="1" result="shadowInnerInner3"></feComposite>
            <feColorMatrix values="0 0 0 0 0.384313725   0 0 0 0 0.388235294   0 0 0 0 0.388235294  0 0 0 1 0" type="matrix" in="shadowInnerInner3" result="shadowMatrixInner3"></feColorMatrix>
            <feMerge>
                <feMergeNode in="shadowMatrixInner1"></feMergeNode>
                <feMergeNode in="shadowMatrixInner2"></feMergeNode>
                <feMergeNode in="shadowMatrixInner3"></feMergeNode>
            </feMerge>
        </filter>
        <path d="M646.176268,122.932976 C645.144559,123.212391 643.907388,123.927916 643.246785,124.944273 C643.110717,125.153618 643.003089,125.815951 643.003089,126.007439 C643.003089,135.617412 643.003089,220.887839 643.003089,269.818718 C643.003089,270.023128 643.154579,271.055778 643.247336,271.306206 C643.781914,272.749475 644.710753,273.098625 646.176268,273.932976 L647.989513,273.932976 C647.989513,271.303093 648.020058,125.503777 647.989513,122.932976 L646.176268,122.932976 Z" id="path-17"></path>
        <filter x="-30.0%" y="-1.0%" width="160.0%" height="102.0%" filterUnits="objectBoundingBox" id="filter-18">
            <feOffset dx="1" dy="0" in="SourceAlpha" result="shadowOffsetInner1"></feOffset>
            <feComposite in="shadowOffsetInner1" in2="SourceAlpha" operator="arithmetic" k2="-1" k3="1" result="shadowInnerInner1"></feComposite>
            <feColorMatrix values="0 0 0 0 1   0 0 0 0 1   0 0 0 0 1  0 0 0 0.644842618 0" type="matrix" in="shadowInnerInner1" result="shadowMatrixInner1"></feColorMatrix>
            <feGaussianBlur stdDeviation="0.5" in="SourceAlpha" result="shadowBlurInner2"></feGaussianBlur>
            <feOffset dx="0" dy="2" in="shadowBlurInner2" result="shadowOffsetInner2"></feOffset>
            <feComposite in="shadowOffsetInner2" in2="SourceAlpha" operator="arithmetic" k2="-1" k3="1" result="shadowInnerInner2"></feComposite>
            <feColorMatrix values="0 0 0 0 0.384313725   0 0 0 0 0.388235294   0 0 0 0 0.388235294  0 0 0 1 0" type="matrix" in="shadowInnerInner2" result="shadowMatrixInner2"></feColorMatrix>
            <feGaussianBlur stdDeviation="0.5" in="SourceAlpha" result="shadowBlurInner3"></feGaussianBlur>
            <feOffset dx="0" dy="-2" in="shadowBlurInner3" result="shadowOffsetInner3"></feOffset>
            <feComposite in="shadowOffsetInner3" in2="SourceAlpha" operator="arithmetic" k2="-1" k3="1" result="shadowInnerInner3"></feComposite>
            <feColorMatrix values="0 0 0 0 0.384313725   0 0 0 0 0.388235294   0 0 0 0 0.388235294  0 0 0 1 0" type="matrix" in="shadowInnerInner3" result="shadowMatrixInner3"></feColorMatrix>
            <feMerge>
                <feMergeNode in="shadowMatrixInner1"></feMergeNode>
                <feMergeNode in="shadowMatrixInner2"></feMergeNode>
                <feMergeNode in="shadowMatrixInner3"></feMergeNode>
            </feMerge>
        </filter>
        <linearGradient x1="50%" y1="100%" x2="50%" y2="0%" id="linearGradient-19">
            <stop stop-color="#1F1F1F" offset="0%"></stop>
            <stop stop-color="#0F0F0F" offset="100%"></stop>
        </linearGradient>
        <ellipse id="path-20" cx="5.7042471" cy="5.98582918" rx="5" ry="5.00191498"></ellipse>
        <filter x="-23.1%" y="-9.6%" width="146.2%" height="119.2%" filterUnits="objectBoundingBox" id="filter-22">
            <feGaussianBlur stdDeviation="0.5" in="SourceGraphic"></feGaussianBlur>
        </filter>
        <filter x="-23.1%" y="-9.6%" width="146.2%" height="119.2%" filterUnits="objectBoundingBox" id="filter-23">
            <feGaussianBlur stdDeviation="0.5" in="SourceGraphic"></feGaussianBlur>
        </filter>
        <rect id="path-24" x="0" y="0" width="79.0483359" height="10.2786604" rx="5.13933022"></rect>
        <filter x="-2.5%" y="-9.7%" width="105.1%" height="138.9%" filterUnits="objectBoundingBox" id="filter-26">
            <feOffset dx="0" dy="1" in="SourceAlpha" result="shadowOffsetOuter1"></feOffset>
            <feGaussianBlur stdDeviation="0.5" in="shadowOffsetOuter1" result="shadowBlurOuter1"></feGaussianBlur>
            <feColorMatrix values="0 0 0 0 1   0 0 0 0 1   0 0 0 0 1  0 0 0 0.217589447 0" type="matrix" in="shadowBlurOuter1"></feColorMatrix>
        </filter>
        <linearGradient x1="39.2994625%" y1="0%" x2="60.7005375%" y2="100%" id="linearGradient-27">
            <stop stop-color="#FFE5DA" offset="0%"></stop>
            <stop stop-color="#F2BD82" offset="28.5328987%"></stop>
            <stop stop-color="#9B7AAE" offset="100%"></stop>
        </linearGradient>
        <path d="M438.856515,13.4852547 C438.856515,27.8822243 428.24406,45.4852547 403.825404,45.4852547 L160.609404,45.4852547 C136.190748,45.4852547 125.578293,27.8822243 125.578293,13.9852547 C125.578293,7.05776228 125.578291,0.485254692 114.068083,0.485254692 L65.5249592,0.485254692 C24.9564149,0.485254692 0.467181467,24.9527392 0.467181467,65.4852547 L0.467181467,1152.48532 C0.467181467,1193.01783 24.9564149,1217.48532 65.5249592,1217.48532 L498.409404,1217.48532 C538.977948,1217.48532 563.467181,1193.01783 563.467181,1152.48532 L563.467181,65.4852547 C563.467181,24.9527392 538.977948,0.485254692 498.409404,0.485254692 L450.366737,0.485254692 C438.856515,0.485254692 438.856515,7.05776446 438.856515,13.4852547 Z" id="path-28"></path>
        <polygon id="path-30" points="0 70.4261824 68.5117235 70.4261824 68.5117235 0.000829411765 0 0.000829411765"></polygon>
        <polygon id="path-32" points="1.46567754 0.0327195349 6.10315147 0.0327195349 6.10315147 9.62835796 1.46567754 9.62835796"></polygon>
    </defs>
    <g id="iPhone-XS/Silver" stroke="none" stroke-width="1" fill="none" fill-rule="evenodd">
        <g id="body" transform="translate(0.000000, 2.000000)">
            <g id="shape" transform="translate(8.000000, 3.000000)">
                <g id="body-color">
                    <use fill="#DDDEE0" fill-rule="evenodd" xlink:href="#path-1"></use>
                    <use fill="black" fill-opacity="1" filter="url(#filter-2)" xlink:href="#path-1"></use>
                    <path stroke="#626363" stroke-width="1.5" d="M110.58953,-0.748851015 L523.415103,-0.748851015 C599.204033,-0.748851015 634.752317,35.0867959 634.752317,110.586874 L634.752317,1179.41542 C634.752317,1252.39712 596.716741,1290.75115 523.415103,1290.75115 L110.58953,1290.75115 C34.8005999,1290.75115 -0.747683398,1254.9155 -0.747683398,1179.41542 L-0.747683398,110.586874 C-0.747683398,35.0867959 34.8005999,-0.748851015 110.58953,-0.748851015 Z"></path>
                </g>
                <path d="M111.083803,7 C39.3137386,7 7,39.5491653 7,111 L7,1179 C7,1250.45083 39.3137386,1283 111.083803,1283 L523.916197,1283 C593.198459,1283 628,1247.93487 628,1179 L628,111 C628,39.5491653 595.686261,7 523.916197,7 L111.083803,7 Z" id="body-black" fill="url(#linearGradient-3)"></path>
                <g id="screen-top-bottom">
                    <use fill="black" fill-opacity="1" filter="url(#filter-6)" xlink:href="#path-5"></use>
                    <use fill="url(#linearGradient-4)" fill-rule="evenodd" xlink:href="#path-5"></use>
                </g>
                <path d="M110.723404,22 C48.0893665,22 23,47.0366171 23,109.5 L23,1177.5 C23,1239.96338 48.0893665,1265 110.723404,1265 L524.276596,1265 C584.404959,1265 612,1237.46095 612,1177.5 L612,109.5 C612,47.0366171 586.910633,22 524.276596,22 L110.723404,22 Z" id="screen-black" fill="#000000" fill-rule="nonzero"></path>
            </g>
            <g id="glass" transform="translate(22.000000, 24.000000)">
                <g id="glass-right">
                    <use fill-opacity="0.78" fill="#FFFFFF" fill-rule="evenodd" xlink:href="#path-7"></use>
                    <use fill="black" fill-opacity="1" filter="url(#filter-8)" xlink:href="#path-7"></use>
                </g>
                <g id="glass-left" transform="translate(22.500000, 622.921136) rotate(-180.000000) translate(-22.500000, -622.921136) ">
                    <use fill-opacity="0.78" fill="#FFFFFF" fill-rule="evenodd" xlink:href="#path-9"></use>
                    <use fill="black" fill-opacity="1" filter="url(#filter-10)" xlink:href="#path-9"></use>
                </g>
            </g>
            <g id="border-marks" transform="translate(5.000000, 0.050000)" fill="#000000">
                <g id="l" transform="translate(0.000000, 123.000000)" opacity="0.45">
                    <rect id="l2" x="0" y="1038.95251" width="10" height="9.00344696"></rect>
                    <rect id="l1" x="0" y="0.952508617" width="10" height="9.00344696"></rect>
                </g>
                <g id="r" transform="translate(629.000000, 123.000000)" opacity="0.45">
                    <rect id="r2" x="0.996911197" y="1038.95251" width="10" height="9.00344696"></rect>
                    <rect id="r1" x="0.996911197" y="0.952508617" width="10" height="9.00344696"></rect>
                </g>
                <g id="tb" transform="translate(126.000000, 0.000000)" opacity="0.447803442">
                    <polygon id="b1" points="0 1284.95251 9 1284.95251 9 1294.95251 0 1294.95251"></polygon>
                    <polygon id="t1" points="378.985328 0 387.985328 0 387.985328 10 378.985328 10"></polygon>
                </g>
            </g>
            <g id="buttons" transform="translate(0.996911, 174.067024)">
                <g id="l3">
                    <use fill="#DDDEE0" fill-rule="evenodd" xlink:href="#path-11"></use>
                    <use fill="black" fill-opacity="1" filter="url(#filter-12)" xlink:href="#path-11"></use>
                </g>
                <g id="l2">
                    <use fill="#DDDEE0" fill-rule="evenodd" xlink:href="#path-13"></use>
                    <use fill="black" fill-opacity="1" filter="url(#filter-14)" xlink:href="#path-13"></use>
                </g>
                <g id="l1">
                    <use fill="#DDDEE0" fill-rule="evenodd" xlink:href="#path-15"></use>
                    <use fill="black" fill-opacity="1" filter="url(#filter-16)" xlink:href="#path-15"></use>
                </g>
                <g id="r1" transform="translate(645.503089, 198.432976) scale(-1, 1) translate(-645.503089, -198.432976) ">
                    <use fill="#DDDEE0" fill-rule="evenodd" xlink:href="#path-17"></use>
                    <use fill="black" fill-opacity="1" filter="url(#filter-18)" xlink:href="#path-17"></use>
                </g>
            </g>
            <g id="top" transform="translate(284.996911, 42.000000)">
                <g id="cam" transform="translate(98.295753, 0.016086)">
                    <circle id="Oval-" fill="url(#linearGradient-19)" cx="9.70733591" cy="9.98391421" r="9"></circle>
                    <g id="camera" transform="translate(4.000000, 4.000000)">
                        <mask id="mask-21" fill="white">
                            <use xlink:href="#path-20"></use>
                        </mask>
                        <use id="Mask" fill="#070D1D" opacity="0.387534981" xlink:href="#path-20"></use>
                        <path d="M6.5042349,-1.48639042 C4.47568142,-0.488551346 3.0042349,2.47951714 3.0042349,5.98582918 C3.0042349,9.49214123 4.47568142,12.4602097 6.5042349,13.4580488 C6.03071429,13.6909721 5.52683775,13.8165405 5.0042349,13.8165405 C2.24281115,13.8165405 0.00423489722,10.3106116 0.00423489722,5.98582918 C0.00423489722,1.66104672 2.24281115,-1.84488218 5.0042349,-1.84488218 C5.52683775,-1.84488218 6.03071429,-1.71931372 6.5042349,-1.48639042 Z" id="Combined-Shape" fill="#0D569A" filter="url(#filter-22)" mask="url(#mask-21)"></path>
                        <path d="M4.99422513,13.4580488 C7.02277861,12.4602097 8.49422513,9.49214123 8.49422513,5.98582918 C8.49422513,2.47951714 7.02277861,-0.488551346 4.99422513,-1.48639042 C5.46774574,-1.71931372 5.97162228,-1.84488218 6.49422513,-1.84488218 C9.25564888,-1.84488218 11.4942251,1.66104672 11.4942251,5.98582918 C11.4942251,10.3106116 9.25564888,13.8165405 6.49422513,13.8165405 C5.97162228,13.8165405 5.46774574,13.6909721 4.99422513,13.4580488 Z" id="Combined-Shape" fill="#0D569A" filter="url(#filter-23)" mask="url(#mask-21)"></path>
                    </g>
                </g>
                <g id="sound" opacity="0.801364272" transform="translate(0.003089, 5.000000)">
                    <mask id="mask-25" fill="white">
                        <use xlink:href="#path-24"></use>
                    </mask>
                    <g id="s">
                        <use fill="black" fill-opacity="1" filter="url(#filter-26)" xlink:href="#path-24"></use>
                        <use fill="#1D1C1C" fill-rule="evenodd" xlink:href="#path-24"></use>
                    </g>
                    <g id="sound-grid" opacity="0.0555366848" mask="url(#mask-25)" stroke="#FFFFFF" stroke-width="0.5">
                        <g transform="translate(-50.000000, -8.000000)">
                            <path d="M2.21907605,0.123466339 L30.5098072,28.4141974" id="Stroke-1"></path>
                            <path d="M7.45813526,0.123466339 L35.7488664,28.4141974" id="Stroke-3"></path>
                            <path d="M12.6971595,0.123466339 L40.9878906,28.4141974" id="Stroke-5"></path>
                            <path d="M17.9361838,0.123466339 L46.2269149,28.4141974" id="Stroke-7"></path>
                            <path d="M23.1752081,0.123466339 L51.4659392,28.4141974" id="Stroke-9"></path>
                            <path d="M28.4142324,0.123466339 L56.7049635,28.4141974" id="Stroke-11"></path>
                            <path d="M33.6532566,0.123466339 L61.9439878,28.4141974" id="Stroke-13"></path>
                            <path d="M38.8922809,0.123466339 L67.183012,28.4141974" id="Stroke-15"></path>
                            <path d="M44.1313052,0.123466339 L72.4220363,28.4141974" id="Stroke-17"></path>
                            <path d="M49.3702946,0.123466339 L77.6610257,28.4141974" id="Stroke-19"></path>
                            <path d="M54.6093188,0.123466339 L82.9000499,28.4141974" id="Stroke-21"></path>
                            <path d="M59.8483431,0.123466339 L88.1390742,28.4141974" id="Stroke-23"></path>
                            <path d="M65.0873674,0.123466339 L93.3780985,28.4141974" id="Stroke-25"></path>
                            <path d="M70.3263917,0.123466339 L98.6171228,28.4141974" id="Stroke-27"></path>
                            <path d="M75.565416,0.123466339 L103.856147,28.4141974" id="Stroke-29"></path>
                            <path d="M80.8044402,0.123466339 L109.095171,28.4141974" id="Stroke-31"></path>
                            <path d="M86.0434645,0.123466339 L114.334196,28.4141974" id="Stroke-33"></path>
                            <path d="M91.2824888,0.123466339 L119.57322,28.4141974" id="Stroke-35"></path>
                            <path d="M96.5215131,0.123466339 L124.812244,28.4141974" id="Stroke-37"></path>
                            <path d="M101.760537,0.123466339 L130.051268,28.4141974" id="Stroke-39"></path>
                            <path d="M106.999562,0.123466339 L135.290293,28.4141974" id="Stroke-41"></path>
                            <path d="M112.238586,0.123466339 L140.529317,28.4141974" id="Stroke-43"></path>
                            <path d="M117.47761,0.123466339 L145.768341,28.4141974" id="Stroke-45"></path>
                            <path d="M143.672732,0.123466339 L115.382,28.4141974" id="Stroke-47"></path>
                            <path d="M138.433707,0.123466339 L110.142976,28.4141974" id="Stroke-49"></path>
                            <path d="M133.194683,0.123466339 L104.903952,28.4141974" id="Stroke-51"></path>
                            <path d="M127.955659,0.123466339 L99.6649276,28.4141974" id="Stroke-53"></path>
                            <path d="M122.716634,0.123466339 L94.4259034,28.4141974" id="Stroke-55"></path>
                            <path d="M117.47761,0.123466339 L89.1868791,28.4141974" id="Stroke-57"></path>
                            <path d="M112.238586,0.123466339 L83.9478548,28.4141974" id="Stroke-59"></path>
                            <path d="M106.999562,0.123466339 L78.7088305,28.4141974" id="Stroke-61"></path>
                            <path d="M101.760537,0.123466339 L73.4698062,28.4141974" id="Stroke-63"></path>
                            <path d="M96.5215131,0.123466339 L68.230782,28.4141974" id="Stroke-65"></path>
                            <path d="M91.2824888,0.123466339 L62.9917577,28.4141974" id="Stroke-67"></path>
                            <path d="M86.0434645,0.123466339 L57.7527334,28.4141974" id="Stroke-69"></path>
                            <path d="M80.8044402,0.123466339 L52.5137091,28.4141974" id="Stroke-71"></path>
                            <path d="M75.565416,0.123466339 L47.2746848,28.4141974" id="Stroke-73"></path>
                            <path d="M70.3263917,0.123466339 L42.0356606,28.4141974" id="Stroke-75"></path>
                            <path d="M65.0873674,0.123466339 L36.7966363,28.4141974" id="Stroke-77"></path>
                            <path d="M59.8483431,0.123466339 L31.557612,28.4141974" id="Stroke-79"></path>
                            <path d="M54.6093188,0.123466339 L26.3185877,28.4141974" id="Stroke-81"></path>
                            <path d="M49.3702946,0.123466339 L21.0795635,28.4141974" id="Stroke-83"></path>
                            <path d="M44.1313052,0.123466339 L15.8405741,28.4141974" id="Stroke-85"></path>
                            <path d="M38.8922809,0.123466339 L10.6015498,28.4141974" id="Stroke-87"></path>
                            <path d="M33.6532566,0.123466339 L5.36252554,28.4141974" id="Stroke-89"></path>
                            <path d="M28.4142324,0.123466339 L0.123501266,28.4141974" id="Stroke-91"></path>
                        </g>
                    </g>
                </g>
            </g>
        </g>
        <g id="screen" transform="translate(43.532819, 39.514745)">
            <mask id="mask-29" fill="white">
                <use xlink:href="#path-28"></use>
            </mask>
            <use fill="url(#linearGradient-27)" xlink:href="#path-28"></use>
            <g id="Group-Copy" mask="url(#mask-29)">
                <g transform="translate(0.467181, 153.000000)">
                    <g id="BACKGROUND" fill="none" transform="translate(0.000000, 325.485255)">
                        <polygon id="Rectangle" fill="#E6E6E6" points="0 0 562.5 0 562.5 1066.40458 0 1066.40458"></polygon>
                        <g id="Group-3" stroke-width="1" transform="translate(0.000000, 248.291853)" fill="#EBEBEB">
                            <polygon id="Fill-2" points="283.5 354.651159 384.322241 569.820871 562.5 569.820871 456.973784 351.895647"></polygon>
                            <polygon id="Path-3" fill-rule="nonzero" points="280.5 0.893136161 369 172.375279 181.5 569.820871 0.75 569.820871"></polygon>
                        </g>
                    </g>
                    <rect id="Rectangle" fill="#F7F7F7" x="0" y="0" width="562.5" height="1065"></rect>
                    <g id="iPhone-X/Home-Indicator/Home-Indicator---On-Light" fill="none" transform="translate(0.000000, 1014.000000)">
                        <rect id="Rectangle-24" fill="#000000" x="181.5" y="30" width="201" height="7.5" rx="3.75"></rect>
                    </g>
                </g>
            </g>
            <g id="Group" mask="url(#mask-29)">
                <g transform="translate(-0.032819, -0.514745)">
                    <g id="Carousel-left" fill="none" transform="translate(0.000000, 983.000000)" fill-rule="evenodd" stroke-width="1">
                        <g id="Group-2" stroke="#EE1263">
                            <path d="M0.25,0.25 L0.25,67.25 L27,67.25 C35.1462001,67.25 41.75,60.6462001 41.75,52.5 L41.75,15 C41.75,6.85379994 35.1462001,0.25 27,0.25 L0.25,0.25 Z" id="Rectangle-3" stroke-width="0.5" fill="#FFFFFF"></path>
                            <polyline id="Path-2" stroke-width="3" stroke-linecap="round" stroke-linejoin="round" points="25.1745113 25.5 16.5 34.1745113 25.1322998 42.806811"></polyline>
                        </g>
                    </g>
                    <g id="Carousel" fill="none" transform="translate(49.500000, 986.000000)">
                        <rect id="Rectangle-2" fill="#FFFFFF" fill-rule="evenodd" x="0" y="0" width="215" height="61.5" rx="30.75"></rect>
                        <text id="A" font-family="Helvetica" font-size="19.5" font-weight="normal" fill="#CC1D5D">
                            <tspan x="34.3273926" y="38.5">Account Balance</tspan>
                        </text>
                    </g>
                    <g id="Carousel" fill="none" transform="translate(271.500000, 986.000000)">
                        <rect id="Rectangle-2" fill="#FFFFFF" fill-rule="evenodd" x="0" y="0" width="138" height="61.5" rx="30.75"></rect>
                        <text id="A" font-family="Helvetica" font-size="19.5" font-weight="normal" fill="#CC1D5D">
                            <tspan x="31.6138916" y="38.5">Pay Bills</tspan>
                        </text>
                    </g>
                    <g id="Carousel" fill="none" transform="translate(421.500000, 986.000000)">
                        <rect id="Rectangle-2" fill="#FFFFFF" fill-rule="evenodd" x="0" y="0" width="138" height="61.5" rx="30.75"></rect>
                        <text id="A" font-family="Helvetica" font-size="19.5" font-weight="normal" fill="#CC1D5D">
                            <tspan x="26.7246094" y="38.5">Recharge </tspan>
                        </text>
                    </g>
                    <g id="Carousel-Right" fill="none" transform="translate(520.500000, 983.000000)">
                        <g id="Group-2" stroke-width="1" fill-rule="evenodd" transform="translate(21.000000, 33.750000) scale(-1, 1) translate(-21.000000, -33.750000) " fill="#FFFFFF" stroke="#EE1263">
                            <g id="Carousel-Right" stroke-width="0.5">
                                <path d="M0.25,0.25 L0.25,67.25 L27,67.25 C35.1462001,67.25 41.75,60.6462001 41.75,52.5 L41.75,15 C41.75,6.85379994 35.1462001,0.25 27,0.25 L0.25,0.25 Z" id="Rectangle-3"></path>
                            </g>
                        </g>
                        <polyline id="Path-2" stroke="#EE1263" stroke-width="3" stroke-linecap="round" stroke-linejoin="round" transform="translate(20.837256, 34.153406) scale(-1, 1) translate(-20.837256, -34.153406) " points="25.1745113 25.5 16.5 34.1745113 25.1322998 42.806811"></polyline>
                    </g>
                    <g id="TEXTBAR-MENU" fill="none" transform="translate(0.000000, 1068.000000)">
                        <rect id="Rectangle-3" fill="#F4F7F9" fill-rule="evenodd" x="0" y="0" width="562.5" height="93"></rect>
                        <g id="TEXTBAR-send" transform="translate(454.500000, 33.000000)" fill="#9B9D9D" fill-rule="evenodd">
                            <polygon id="Page-1" points="2.20955882 12.1801471 24.5845588 13.5514706 2.20955882 14.8676471 0 27 26.9632353 13.4448529 0 0"></polygon>
                        </g>
                        <g id="Menu" transform="translate(25.500000, 28.500000)" fill-rule="evenodd" stroke-width="1">
                            <g>
                                <circle id="Oval" fill="#EE1263" fill-rule="nonzero" cx="18.75" cy="18.75" r="18.75"></circle>
                                <g id="Group" transform="translate(7.500000, 7.500000)" fill-rule="nonzero" stroke="#FFFFFF" stroke-linecap="round" stroke-width="2.25">
                                    <path d="M11.25,0 L11.25,22.5" id="Path-4"></path>
                                    <path d="M12,-0.75 L12,23.25" id="Path-4-Copy" transform="translate(12.000000, 11.250000) rotate(90.000000) translate(-12.000000, -11.250000) "></path>
                                </g>
                            </g>
                        </g>
                        <g id="TEXTBAR-mic" transform="translate(516.000000, 33.000000)" fill-rule="evenodd" stroke-width="1">
                            <g id="Group">
                                <path d="M7.3125,0.75 C4.93077202,0.75 3,2.68077202 3,5.0625 L3,14.3980263 C3,16.7797543 4.93077202,18.7105263 7.3125,18.7105263 C9.69422798,18.7105263 11.625,16.7797543 11.625,14.3980263 L11.625,5.0625 C11.625,2.68077202 9.69422798,0.75 7.3125,0.75 Z" id="Rectangle-4" stroke="#979797" stroke-width="1.5" fill="#9B9B9B"></path>
                                <path d="M0,12.5921053 C0.00915805653,18.8912005 2.44894757,22.0407482 7.31936854,22.0407482 C12.1897895,22.0407482 14.625,18.8912005 14.625,12.5921053" id="Path-2" stroke="#979797" stroke-width="1.5"></path>
                                <polygon id="Rectangle-5" fill="#9B9B9B" points="2.25 27.4736842 12.375 27.4736842 12.375 28.6184211 2.25 28.6184211"></polygon>
                                <polygon id="Rectangle-5-Copy" fill="#9B9B9B" points="7.875 21.75 7.875 27.4736842 6.75 27.4736842 6.75 21.75"></polygon>
                            </g>
                        </g>
                        <g id="TEXTBAR-Text-Inactive" transform="translate(100.500000, 34.500000)" fill="#9B9B9B" font-family="Helvetica" font-size="19.5" font-weight="normal">
                            <text id="How-may-I-help-you?">
                                <tspan x="0" y="19">How may I help you?</tspan>
                            </text>
                        </g>
                    </g>
                    <g id="Message-User" fill="none" transform="translate(345.000000, 198.500000)">
                        <path d="M18,0 L162,0 C171.941125,-1.82615513e-15 180,8.0588745 180,18 L180,66 C180,69.3137085 177.313708,72 174,72 L18,72 C8.0588745,72 1.21743675e-15,63.9411255 0,54 L0,18 C-1.21743675e-15,8.0588745 8.0588745,1.82615513e-15 18,0 Z" id="Rectangle-2-Copy" fill="#EE1263" fill-rule="evenodd"></path>
                        <text id="Hi" font-family="Helvetica" font-size="19.5" font-weight="normal" line-spacing="30" fill="#FFFFFF">
                            <tspan x="22.5" y="34">What is NEFT?</tspan>
                        </text>
                        <g id="Page-1" stroke-width="1" fill-rule="evenodd" transform="translate(109.500000, 51.000000)" fill="#FEFEFE">
                            <text id="2:03-pm" font-family="Futura-Medium, Futura" font-size="9" font-weight="400">
                                <tspan x="1.71356663" y="9">2</tspan>
                                <tspan x="7.26825413" y="9" letter-spacing="-0.00262912503">:</tspan>
                                <tspan x="10.0429688" y="9">03 </tspan>
                                <tspan x="23.9296875" y="9" letter-spacing="-0.00262912503">p</tspan>
                                <tspan x="29.3235427" y="9">m</tspan>
                            </text>
                            <path d="M47.46402,7.43231162 L44.6502801,5.08237548 L43.7059951,5.86462324 L47.46402,9 L55.5,2.28224777 L54.4983698,1.5 L47.46402,7.43231162 Z M46.523558,5.02490421 L47.46402,5.81034483 L51.6808069,2.28224777 L50.7479909,1.5 L46.523558,5.02490421 Z M39.890625,5.86462324 L43.6448269,9 L44.5891119,8.21775223 L40.831087,5.08237548 L39.890625,5.86462324 Z" id="Fill-3"></path>
                        </g>
                    </g>
                    <g id="Message-Bot" fill="none" transform="translate(37.500000, 300.500000)">
                        <path d="M18,0 L471,0 C480.941125,-1.82615513e-15 489,8.0588745 489,18 L489,174.18 C489,177.493708 486.313708,180.18 483,180.18 L18,180.18 C8.0588745,180.18 1.21743675e-15,172.121125 0,162.18 L0,18 C-1.21743675e-15,8.0588745 8.0588745,1.82615513e-15 18,0 Z" id="Rectangle-2" fill="#FFFFFF" fill-rule="evenodd" transform="translate(244.500000, 90.090000) scale(-1, 1) translate(-244.500000, -90.090000) "></path>
                        <text id="Hi" font-family="Helvetica" font-size="19.5" font-weight="normal" line-spacing="30" fill="#6E6E6E">
                            <tspan x="22.5" y="29.5">National Electronic Funds Transfer (NEFT) is an </tspan>
                            <tspan x="22.5" y="59.5">Indian system of electronic transfer of money from </tspan>
                            <tspan x="22.5" y="89.5">one bank or bank branch to another. The banks or </tspan>
                            <tspan x="22.5" y="119.5">their branches that support such transactions have </tspan>
                            <tspan x="22.5" y="149.5">to participate in the NEFT network.</tspan>
                        </text>
                    </g>
                    <g id="Option-text" fill="none" transform="translate(37.500000, 614.000000)">
                        <path d="M18,0 L471,0 C480.941125,-1.82615513e-15 489,8.0588745 489,18 L489,170 L0,170 L0,18 C-1.21743675e-15,8.0588745 8.0588745,1.82615513e-15 18,0 Z" id="Rectangle" fill="#FFFFFF" fill-rule="evenodd"></path>
                        <text id="Hi" font-family="Helvetica" font-size="21" font-weight="normal" line-spacing="30" fill="#6E6E6E">
                            <tspan x="22.5" y="41">You can initiate a fund transfer through internet </tspan>
                            <tspan x="22.5" y="71">banking, mobile banking or branch banking. I </tspan>
                            <tspan x="22.5" y="101">can also help you initiate a fund transfer from </tspan>
                            <tspan x="22.5" y="131">here. Click below to begin.</tspan>
                        </text>
                    </g>
                    <g id="Option-button-end" fill="none" transform="translate(37.500000, 783.500000)">
                        <path d="M18,0 L471,0 C480.941125,-1.82615513e-15 489,8.0588745 489,18 L489,72 L0,72 L0,18 C-1.21743675e-15,8.0588745 8.0588745,1.82615513e-15 18,0 Z" id="Rectangle" fill="#FFFFFF" fill-rule="evenodd" transform="translate(244.500000, 36.000000) scale(1, -1) translate(-244.500000, -36.000000) "></path>
                        <text id="Hi" font-family="Helvetica" font-size="21" font-weight="normal" line-spacing="27" fill="#EE1263">
                            <tspan x="205.791504" y="41">Transfer</tspan>
                        </text>
                        <path d="M0,0.225 L489,0.225" id="Line" stroke="#979797" stroke-width="0.5"></path>
                    </g>
                    <g id="Message-User" fill="none" transform="translate(210.000000, 512.000000)">
                        <path d="M18,0 L297,0 C306.941125,-1.82615513e-15 315,8.0588745 315,18 L315,66 C315,69.3137085 312.313708,72 309,72 L18,72 C8.0588745,72 1.21743675e-15,63.9411255 0,54 L0,18 C-1.21743675e-15,8.0588745 8.0588745,1.82615513e-15 18,0 Z" id="Rectangle-2-Copy" fill="#EE1263" fill-rule="evenodd"></path>
                        <text id="Hi" font-family="Helvetica" font-size="19.5" font-weight="normal" line-spacing="30" fill="#FFFFFF">
                            <tspan x="22.5" y="34">How do you transfer money?</tspan>
                        </text>
                        <g id="Page-1" stroke-width="1" fill-rule="evenodd" transform="translate(244.500000, 51.000000)" fill="#FEFEFE">
                            <text id="2:03-pm" font-family="Futura-Medium, Futura" font-size="9" font-weight="400">
                                <tspan x="1.71356663" y="9">2</tspan>
                                <tspan x="7.26825413" y="9" letter-spacing="-0.00262912503">:</tspan>
                                <tspan x="10.0429688" y="9">03 </tspan>
                                <tspan x="23.9296875" y="9" letter-spacing="-0.00262912503">p</tspan>
                                <tspan x="29.3235427" y="9">m</tspan>
                            </text>
                            <path d="M47.46402,7.43231162 L44.6502801,5.08237548 L43.7059951,5.86462324 L47.46402,9 L55.5,2.28224777 L54.4983698,1.5 L47.46402,7.43231162 Z M46.523558,5.02490421 L47.46402,5.81034483 L51.6808069,2.28224777 L50.7479909,1.5 L46.523558,5.02490421 Z M39.890625,5.86462324 L43.6448269,9 L44.5891119,8.21775223 L40.831087,5.08237548 L39.890625,5.86462324 Z" id="Fill-3"></path>
                        </g>
                    </g>
                    <rect id="Rectangle" fill="#CB1D5D" fill-rule="evenodd" x="0.5" y="0.514745308" width="562.5" height="153"></rect>
                    <g id="HEADER" fill="none" transform="translate(0.000000, 51.000000)" fill-rule="evenodd" stroke-width="1">
                        <g id="Group" transform="translate(444.000000, 31.500000)" fill="#FEFEFE">
                            <g id="HEADER-CLOSE" transform="translate(51.000000, 0.000000)">
                                <g id="Group-4" transform="translate(13.965517, 13.655172)">
                                    <polygon id="Fill-1" points="10.1815106 7.96551724 16.2931034 1.98973761 16.2931034 0 14.2581445 0 8.14655172 5.97577963 2.04167496 0 0 0 0 1.98973761 6.1115928 7.96551724 0 13.9412969 0 15.9310345 2.04167496 15.9310345 8.14655172 9.95525485 14.2581445 15.9310345 16.2931034 15.9310345 16.2931034 13.9412969"></polygon>
                                </g>
                            </g>
                            <g id="HEADER-Minimise">
                                <g id="Group-2" transform="translate(9.310345, 18.206897)">
                                    <path d="M22.293982,3.2672601 L2.74057947,3.2672601 C1.95792592,3.2672601 1.32404122,2.66188079 1.32404122,1.91442266 C1.32404122,1.16696453 1.95792592,0.561585222 2.74057947,0.561585222 L22.293982,0.561585222 C23.0766355,0.561585222 23.7105202,1.16696453 23.7105202,1.91442266 C23.7105202,2.66188079 23.0766355,3.2672601 22.293982,3.2672601" id="Fill-8"></path>
                                </g>
                            </g>
                        </g>
                        <g id="Logo" transform="translate(27.000000, 18.000000)">
                            <g id="Group">
                                <g id="Page-1">
                                    <path d="M55.2728356,59.2987941 L61.3260635,59.0458235 C61.3302238,59.0458235 61.3302238,59.0458235 61.3343841,59.0416765 C63.5060576,58.9504412 65.1909768,57.1132941 65.09529,54.9485294 L63.1399518,10.6911176 C63.1399518,10.6662353 63.1399518,10.6413529 63.1357915,10.6164706 C62.9985018,8.45170588 61.1263694,6.80532353 58.9546959,6.94217647 L3.69350912,10.4132647 C3.64358559,10.4174118 3.59782235,10.4215588 3.54789882,10.4257059 C1.38038559,10.6413529 -0.196365882,12.5655882 0.0199694118,14.7262059 L4.33419441,57.7353529 C4.54220912,59.8088824 6.33529588,61.3598824 8.41960324,61.2727941 L39.3222679,59.9706176 L47.0479341,70.4253529 L55.2728356,59.2987941 Z" id="Fill-1" fill="#FEFEFE"></path>
                                    <mask id="mask-31" fill="white">
                                        <use xlink:href="#path-30"></use>
                                    </mask>
                                    <g id="Clip-4"></g>
                                    <path d="M54.9117221,46.3359176 L59.4464426,46.3359176 L59.4464426,42.3340059 L54.9117221,42.3340059 L54.9117221,46.3359176 Z M54.7453103,29.9923588 L59.6045338,29.9923588 L59.6045338,33.7164176 L58.6643074,41.1935647 L55.660575,41.1935647 L54.7453103,33.7164176 L54.7453103,29.9923588 Z M47.5604824,40.7166529 C46.9364382,40.9364471 46.2832721,41.1355059 45.6051441,41.3055353 C44.6857191,41.5502118 44.0991176,41.7948882 43.8536603,42.0312706 C43.5998824,42.2759471 43.4709132,42.5579471 43.4709132,42.8689765 C43.4709132,43.2256235 43.5998824,43.5159176 43.8453397,43.7440059 C44.0949574,43.9679471 44.4652235,44.0840647 44.9478176,44.0840647 C45.4553735,44.0840647 45.9254868,43.9596529 46.3623176,43.7149765 C46.7949882,43.4703 47.1070103,43.1717118 47.2859029,42.8192118 C47.4689559,42.4667118 47.5604824,42.0063882 47.5604824,41.4423882 L47.5604824,40.7166529 Z M43.6206838,38.3320941 L39.2731765,37.8717706 C39.4354279,37.1170059 39.6725647,36.5198294 39.9845868,36.0843882 C40.2924485,35.6489471 40.7376,35.2715647 41.3158809,34.9522412 C41.7360706,34.7200059 42.3060309,34.5416824 43.0382426,34.4172706 C43.7662941,34.2887118 44.55675,34.2265059 45.40545,34.2265059 C46.7658662,34.2265059 47.8641838,34.3053 48.6879221,34.4545941 C49.5158206,34.6080353 50.2064294,34.9273588 50.7555882,35.4084176 C51.1424956,35.7443294 51.4503574,36.2170941 51.6750132,36.8308588 C51.8955088,37.4446235 52.0078368,38.0293588 52.0078368,38.5892118 L52.0078368,43.8145059 C52.0078368,44.3743588 52.0452794,44.8098 52.1160044,45.1249765 C52.1867294,45.4401529 52.3406603,45.8465647 52.5777971,46.3359176 L48.3093353,46.3359176 C48.1387632,46.0331824 48.0264353,45.7968 47.9765118,45.6392118 C47.9224279,45.4774765 47.8725044,45.2286529 47.8184206,44.8844471 C47.2234985,45.4567412 46.6327368,45.8673 46.041975,46.1119765 C45.2390382,46.4395941 44.3029721,46.6013294 43.2379368,46.6013294 C41.8234368,46.6013294 40.7500809,46.2778588 40.0137088,45.6226235 C39.2814971,44.9673882 38.9153912,44.1628588 38.9153912,43.2007412 C38.9153912,42.3049765 39.18165,41.5626529 39.7100074,40.9820647 C40.2383647,40.4056235 41.2118735,39.9743294 42.6346941,39.6923294 C44.3404147,39.3481235 45.4470529,39.1117412 45.9546088,38.9707412 C46.4580044,38.8338882 46.9946824,38.6555647 47.5604824,38.4316235 C47.5604824,37.8717706 47.4481544,37.4819471 47.2151779,37.2621529 C46.9863618,37.0382118 46.5786529,36.9262412 45.9962118,36.9262412 C45.2515191,36.9262412 44.6940397,37.0465059 44.3237735,37.2828882 C44.0325529,37.4695059 43.7995765,37.8178588 43.6206838,38.3320941 L43.6206838,38.3320941 Z M24.2129118,29.9923588 L28.7601132,29.9923588 L28.7601132,36.0097412 C29.3799971,35.3710941 29.9915603,34.9149176 30.6031235,34.6412118 C31.2146868,34.3675059 31.9385779,34.2265059 32.7706368,34.2265059 C34.0062441,34.2265059 34.9797529,34.6038882 35.6911632,35.3545059 C36.4025735,36.1051235 36.7603588,37.2580059 36.7603588,38.8090059 L36.7603588,46.3359176 L32.1923559,46.3359176 L32.1923559,39.8250353 C32.1923559,39.0827118 32.0509059,38.5560353 31.7763265,38.2491529 C31.5017471,37.9381235 31.1148397,37.7846824 30.6156044,37.7846824 C30.0622853,37.7846824 29.6171338,37.9920353 29.2759897,38.4108882 C28.9306853,38.8255941 28.7601132,39.5720647 28.7601132,40.6503 L28.7601132,46.3359176 L24.2129118,46.3359176 L24.2129118,29.9923588 Z M15.7342324,40.1028882 L13.9245044,34.2265059 L12.1272574,40.1028882 L15.7342324,40.1028882 Z M16.7951074,43.6361824 L11.0331,43.6361824 L10.2384838,46.3359176 L5.06723824,46.3359176 L11.2244735,29.9923588 L16.7410235,29.9923588 L22.8982588,46.3359176 L17.6022044,46.3359176 L16.7951074,43.6361824 Z" id="Fill-3" fill="#CB1D5D" mask="url(#mask-31)"></path>
                                    <path d="M16.0932657,23.6175 L12.1909099,23.6175 L11.1757981,25.5417353 L9.69473338,25.5417353 L14.2044922,17.0858824 L18.5561599,25.5417353 L17.0501334,25.5417353 L16.0932657,23.6175 Z M15.5108246,22.5060882 L14.1628893,19.8063529 L12.744229,22.5060882 L15.5108246,22.5060882 Z M21.5806937,21.4112647 L18.7184113,25.5666176 L20.2743613,25.5666176 L22.3545084,22.5226765 L24.372251,25.5666176 L25.9157201,25.5666176 L23.1574451,21.4112647 L25.786751,17.6167059 L24.2099996,17.6167059 L22.3794701,20.3081471 L20.6363069,17.6167059 L19.0720363,17.6167059 L21.5806937,21.4112647 Z M27.1430069,25.5666176 L28.5200643,25.5666176 L28.5200643,17.6167059 L27.1430069,17.6167059 L27.1430069,25.5666176 Z M35.3803893,18.7903235 C34.7896275,17.9028529 33.9658893,17.4591176 32.9174951,17.4591176 C32.1353599,17.4591176 31.486354,17.6581765 30.9621569,18.0645882 C30.4421201,18.4627059 30.1800216,18.9645 30.1800216,19.5616765 C30.1800216,20.445 30.8040657,21.1168235 32.0479937,21.5771471 L32.929976,21.8964706 C33.1587922,21.9835588 33.354326,22.0706471 33.5207378,22.1660294 C33.6871496,22.2614118 33.820279,22.3609412 33.9242863,22.4729118 C34.0282937,22.5807353 34.1073393,22.6968529 34.1531025,22.8254118 C34.203026,22.9539706 34.2279878,23.0949706 34.2279878,23.2525588 C34.2279878,23.6340882 34.0865378,23.9534118 33.8036378,24.2022353 C33.5165775,24.4510588 33.1671128,24.5754706 32.7344422,24.5754706 C32.1894437,24.5754706 31.7775746,24.4054412 31.4946746,24.0612353 C31.3365834,23.8829118 31.2284157,23.5594412 31.1660113,23.0949706 L29.7723128,23.3603824 C29.8971216,24.1027059 30.213304,24.6791471 30.7250201,25.0897059 C31.2367363,25.5002647 31.8899025,25.7076176 32.6803584,25.7076176 C33.5124172,25.7076176 34.2155069,25.4670882 34.7771466,24.9860294 C35.3387863,24.5091176 35.617526,23.9036471 35.617526,23.1737647 C35.617526,22.6263529 35.446954,22.1618824 35.1016496,21.7886471 C34.7605054,21.4112647 34.2196672,21.0960882 33.4791349,20.8348235 L32.5680304,20.5072059 C31.9065437,20.2708235 31.5778804,19.9597941 31.5778804,19.5699706 C31.5778804,19.2921176 31.7026893,19.0557353 31.9564672,18.8691176 C32.2060849,18.6825 32.5222672,18.5871176 32.9091746,18.5871176 C33.2170363,18.5871176 33.4708143,18.6410294 33.6663481,18.753 C33.8577216,18.8483824 34.0532554,19.0557353 34.2612701,19.3709118 L35.3803893,18.7903235 Z" id="Fill-5" fill="#CB1D5D" mask="url(#mask-31)"></path>
                                    <path d="M61.5823376,57.3994412 C60.6545921,56.9391176 59.6602818,57.3952941 59.1236038,58.1956765 C58.0752097,58.7762647 58.07937,60.3645882 58.8407038,61.3474412 C59.2525729,61.8824118 59.7642891,61.8616765 60.2427229,61.6087059 C60.2843259,61.6128529 60.3217685,61.6128529 60.3675318,61.6128529 C60.4632185,63.1762941 59.6561215,64.4784706 58.8781465,65.8428529 C58.8240626,65.7806471 58.7075744,65.7765 58.6618112,65.8552941 C58.5661244,66.0460588 58.4537965,66.2368235 58.4080332,66.4441765 C58.3913921,66.5146765 58.4121935,66.5851765 58.4537965,66.6432353 C58.4413156,66.7966765 58.6493303,66.8837647 58.7616582,66.7386176 C58.7991009,66.6971471 58.8282229,66.6473824 58.8615053,66.6059118 C59.7434876,65.9631176 60.5422641,65.1295588 61.1288656,64.1798824 C61.8693979,63.5536765 62.3894347,62.7035294 62.5184038,61.7455588 C62.7264185,61.2437647 62.8553876,60.6963529 62.9094715,60.2360294 C63.0550818,59.0292353 62.7222582,57.9675882 61.5823376,57.3994412 L61.5823376,57.3994412 Z M59.0736803,59.6015294 C59.0736803,59.5351765 59.1735274,59.4729706 59.1984891,59.4107647 C59.2151303,59.6139706 59.3066568,59.8254706 59.3940229,60.0245294 C59.3815421,60.1323529 59.3316185,60.2360294 59.3274582,60.3355588 C59.2151303,60.1033235 59.0736803,59.8627941 59.0736803,59.6139706 L59.0736803,59.6015294 Z M59.2400921,61.1815588 C58.7907803,60.8041765 58.64517,60.0120882 58.6826126,59.4646765 C58.6909332,59.3112353 58.7325362,59.1785294 58.7907803,59.0582647 C58.78662,59.0831471 58.7824597,59.1121765 58.7824597,59.1370588 C58.6368494,59.4854118 58.6576509,59.8669412 58.78662,60.2235882 C58.7907803,60.2692059 58.7949406,60.3148235 58.7991009,60.3562941 C58.8115818,60.4475294 58.8448641,60.5346176 58.8947876,60.6175588 C58.9363906,60.7419706 58.9946347,60.8580882 59.0778406,60.9659118 C59.1901685,61.1027647 59.3940229,61.2147353 59.5937171,61.2479118 C59.6436406,61.2810882 59.6935641,61.3101176 59.7434876,61.3391471 C59.5729156,61.3598824 59.4023435,61.3184118 59.2400921,61.1815588 L59.2400921,61.1815588 Z M60.8792479,57.9344118 C60.5921876,57.8722059 60.2843259,57.8929412 60.0347082,57.9800294 C59.9723038,57.9800294 59.9098994,57.9841765 59.847495,57.9883235 C59.8308538,57.9883235 59.8183729,57.9924706 59.8058921,57.9924706 C60.0430288,57.7851176 60.3300891,57.6897353 60.6213097,57.6772941 C60.6171494,57.6814412 60.6088288,57.6855882 60.6005082,57.6897353 C60.5589053,57.7146176 60.5755465,57.7809706 60.62547,57.7851176 C60.8210038,57.7892647 60.9874156,57.8307353 61.1288656,57.8887941 C61.04982,57.8887941 60.9707744,57.9012353 60.8792479,57.9344118 L60.8792479,57.9344118 Z M61.3035979,61.8367941 C61.2994376,61.8450882 61.2994376,61.8575294 61.2952774,61.8699706 C61.2994376,61.6750588 61.2911171,61.4801471 61.2661553,61.2852353 C61.2827965,61.2727941 61.3035979,61.2603529 61.3202391,61.2479118 C61.3202391,61.4428235 61.3202391,61.6377353 61.3035979,61.8367941 L61.3035979,61.8367941 Z M62.4268774,59.3112353 C62.3686332,59.2656176 62.2854274,59.3070882 62.3020685,59.3817353 C62.3894347,59.7674118 62.3769538,60.1447941 62.3145494,60.5097353 C62.3187097,60.4185 62.32287,60.3231176 62.3145494,60.2277353 C62.3187097,60.1987059 62.32287,60.1696765 62.32287,60.1447941 C62.3644729,59.9747647 62.3603126,59.8047353 62.3187097,59.6471471 C62.2812671,59.1287647 62.1606185,58.6020882 61.9567641,58.1998235 C62.2812671,58.4901176 62.4185568,58.9048235 62.4559994,59.3444118 C62.4476788,59.3319706 62.4393582,59.3236765 62.4268774,59.3112353 L62.4268774,59.3112353 Z" id="Fill-6" fill="#020303" mask="url(#mask-31)"></path>
                                    <g id="Group-9" mask="url(#mask-31)">
                                        <g transform="translate(62.404412, 57.276971)">
                                            <mask id="mask-33" fill="white">
                                                <use xlink:href="#path-32"></use>
                                            </mask>
                                            <g id="Clip-8" stroke="none" fill="none"></g>
                                            <path d="M4.74814368,0.215778551 C3.82039809,-0.244544978 2.82608779,0.215778551 2.29357015,1.01201385 C1.24101574,1.59260208 1.24517603,3.18092561 2.00650985,4.16377855 C2.41837897,4.69874914 2.93009515,4.67801385 3.40852897,4.42504326 C3.45013191,4.42919032 3.49173485,4.42919032 3.53333779,4.42919032 C3.62902456,5.99677855 2.8219275,7.29480796 2.0439525,8.65919032 C1.98986868,8.59698443 1.87338044,8.59283737 1.8317775,8.67163149 C1.73193044,8.8623962 1.6196025,9.0531609 1.57383926,9.26051385 C1.55719809,9.33101385 1.57799956,9.40151385 1.6196025,9.45957267 C1.60712162,9.61301385 1.81513632,9.70010208 1.93162456,9.55495502 C1.96490691,9.51348443 1.99402897,9.46371973 2.03147162,9.42224914 C2.90929368,8.77945502 3.70807015,7.94174914 4.29883191,6.99621973 C5.03520397,6.37001385 5.55524074,5.51986679 5.68837015,4.5618962 C5.89638485,4.06010208 6.02119368,3.51269032 6.0752775,3.05651385 C6.22088779,1.84557267 5.88806426,0.78392561 4.74814368,0.215778551 L4.74814368,0.215778551 Z M2.30189074,2.41371973 C2.30189074,2.35151385 2.36845544,2.28930796 2.39341721,2.22710208 C2.41005838,2.43030796 2.48910397,2.64180796 2.57647015,2.84086679 C2.56398926,2.94869032 2.53486721,3.05236679 2.53070691,3.1518962 C2.41837897,2.9196609 2.30189074,2.67913149 2.30189074,2.4261609 L2.30189074,2.41371973 Z M2.40589809,3.9978962 C1.95658632,3.62051385 1.81097603,2.82842561 1.84841868,2.28101385 C1.85673926,2.13171973 1.89834221,1.99486679 1.95658632,1.87460208 C1.95242603,1.89948443 1.95242603,1.92851385 1.94826574,1.9533962 C1.80265544,2.30174914 1.82345691,2.68327855 1.95242603,3.04407267 C1.95658632,3.08554326 1.96074662,3.1311609 1.96490691,3.17263149 C1.97738779,3.26386679 2.01067015,3.35095502 2.06059368,3.4338962 C2.10219662,3.55830796 2.16044074,3.67442561 2.24364662,3.78224914 C2.35597456,3.91910208 2.55982897,4.03107267 2.75952309,4.06424914 C2.80944662,4.09742561 2.85937015,4.12645502 2.91345397,4.15548443 C2.74288191,4.17621973 2.56814956,4.13474914 2.40589809,3.9978962 L2.40589809,3.9978962 Z M4.04505397,0.750749139 C3.75799368,0.692690316 3.45013191,0.709278551 3.20051426,0.796366786 C3.13810985,0.796366786 3.07570544,0.800513845 3.01330103,0.804660904 C3.00082015,0.804660904 2.98417897,0.808807963 2.97169809,0.808807963 C3.21299515,0.601455022 3.49589515,0.506072669 3.79127603,0.493631492 C3.78295544,0.50192561 3.77463485,0.50192561 3.76631426,0.506072669 C3.72471132,0.530955022 3.7413525,0.597307963 3.79127603,0.601455022 C3.98680985,0.609749139 4.15322162,0.647072669 4.29883191,0.705131492 C4.21978632,0.705131492 4.13658044,0.717572669 4.04505397,0.750749139 L4.04505397,0.750749139 Z M4.46940397,4.65313149 C4.46524368,4.66142561 4.46524368,4.67386679 4.46108338,4.68630796 C4.46524368,4.4913962 4.45692309,4.29648443 4.43196132,4.10157267 C4.45276279,4.08913149 4.46940397,4.07669032 4.49020544,4.06424914 C4.49020544,4.26330796 4.48604515,4.45407267 4.46940397,4.65313149 L4.46940397,4.65313149 Z M5.59268338,2.12757267 C5.53859956,2.08195502 5.45123338,2.12342561 5.46787456,2.20221973 C5.55524074,2.58374914 5.54692015,2.96113149 5.48035544,3.32607267 C5.48867603,3.23483737 5.48867603,3.13945502 5.48451574,3.04407267 C5.48451574,3.01504326 5.48867603,2.98601385 5.48867603,2.96113149 C5.53027897,2.79110208 5.52611868,2.62521973 5.48451574,2.46348443 C5.44707309,1.94510208 5.33058485,1.41842561 5.12257015,1.0161609 C5.44707309,1.30645502 5.58436279,1.7211609 5.62180544,2.16074914 C5.61348485,2.14830796 5.60516426,2.14001385 5.59268338,2.12757267 L5.59268338,2.12757267 Z" id="Fill-7" stroke="none" fill="#020303" fill-rule="evenodd" mask="url(#mask-33)"></path>
                                        </g>
                                    </g>
                                    <path d="M7.81344838,9.41299412 C8.74119397,9.87331765 9.73550426,9.41714118 10.2721822,8.61675882 C11.3205763,8.03617059 11.316416,6.44784706 10.5550822,5.46499412 C10.1473734,4.93002353 9.63149691,4.95075882 9.15722338,5.20372941 C9.11146015,5.19958235 9.0740175,5.19958235 9.02825426,5.19958235 C8.9325675,3.63199412 9.73966456,2.33396471 10.5176396,0.965435294 C10.5717234,1.03178824 10.6882116,1.03593529 10.7339749,0.957141176 C10.8296616,0.766376471 10.9419896,0.575611765 10.9919131,0.368258824 C11.004394,0.297758824 10.9835925,0.227258824 10.9419896,0.1692 C10.9586307,0.0157588235 10.7464557,-0.0713294118 10.6341278,0.0738176471 C10.5966851,0.115288235 10.5675631,0.165052941 10.5342807,0.206523529 C9.65229838,0.849317647 8.85768221,1.68287647 8.26692044,2.63255294 C7.52638809,3.25875882 7.00635132,4.10890588 6.87738221,5.06687647 C6.6693675,5.56867059 6.54039838,6.11608235 6.48631456,6.57225882 C6.34070426,7.7832 6.67352779,8.84484706 7.81344838,9.41299412 L7.81344838,9.41299412 Z M10.5051587,7.21090588 C10.5051587,7.27725882 10.3179454,7.33946471 10.2929837,7.40167059 C10.2721822,7.19431765 10.1390528,6.98696471 10.0475263,6.78375882 C10.0600072,6.68008235 10.1806557,6.57640588 10.1806557,6.47687647 C10.297144,6.70496471 10.5051587,6.94964118 10.5051587,7.19846471 L10.5051587,7.21090588 Z M10.155694,5.63087647 C10.6050057,6.00825882 10.7547763,6.80034706 10.7131734,7.34775882 C10.7048528,7.5012 10.6674101,7.63390588 10.6050057,7.75417059 C10.609166,7.72928824 10.6133263,7.70025882 10.6133263,7.67537647 C10.7589366,7.32702353 10.7422954,6.94549412 10.609166,6.5847 C10.609166,6.54322941 10.6008454,6.49761176 10.5966851,6.45614118 C10.5842043,6.36490588 10.5509219,6.27781765 10.5009984,6.19487647 C10.4593954,6.07046471 10.4011513,5.95434706 10.3179454,5.84652353 C10.2056175,5.70967059 10.0017631,5.5977 9.80622926,5.56452353 C9.75214544,5.53134706 9.70638221,5.50231765 9.65229838,5.47328824 C9.82287044,5.45255294 9.9934425,5.49402353 10.155694,5.63087647 L10.155694,5.63087647 Z M8.51653809,8.87802353 C8.80359838,8.93608235 9.11146015,8.91949412 9.36107779,8.83240588 C9.4276425,8.83240588 9.48588662,8.82825882 9.54829103,8.82411176 C9.56493221,8.82411176 9.57741309,8.81996471 9.58989397,8.81996471 C9.35275721,9.02731765 9.06985721,9.1227 8.77447632,9.13514118 C8.77863662,9.13099412 8.78695721,9.12684706 8.79527779,9.1227 C8.83688074,9.09367059 8.82023956,9.03146471 8.77031603,9.02731765 C8.57478221,9.01902353 8.40837044,8.9817 8.26692044,8.92364118 C8.34596603,8.92364118 8.42917191,8.9112 8.51653809,8.87802353 L8.51653809,8.87802353 Z M8.09218809,4.97564118 C8.09634838,4.96734706 8.09634838,4.95490588 8.10050868,4.94246471 C8.09634838,5.13737647 8.10466897,5.33228824 8.12963074,5.5272 C8.11298956,5.53964118 8.09218809,5.55208235 8.07138662,5.56452353 C8.07138662,5.36546471 8.07554691,5.1747 8.09218809,4.97564118 L8.09218809,4.97564118 Z M6.96890868,7.5012 C7.02715279,7.54681765 7.11035868,7.50534706 7.0937175,7.42655294 C7.00635132,7.04087647 7.01883221,6.66764118 7.08123662,6.3027 C7.07707632,6.39393529 7.07707632,6.48931765 7.08123662,6.5847 C7.07707632,6.61372941 7.07707632,6.64275882 7.07291603,6.66764118 C7.03131309,6.83767059 7.03547338,7.00355294 7.08123662,7.16528824 C7.11451897,7.68367059 7.2351675,8.21034706 7.43902191,8.61261176 C7.11451897,8.32231765 6.97722926,7.90761176 6.93978662,7.46802353 C6.94810721,7.48046471 6.95642779,7.48875882 6.96890868,7.5012 L6.96890868,7.5012 Z" id="Fill-10" fill="#020303" mask="url(#mask-31)"></path>
                                    <path d="M2.25987176,9.41299412 C3.18761735,9.87331765 4.18192765,9.41299412 4.71444529,8.61675882 C5.76699971,8.03617059 5.76283941,6.44784706 5.00150559,5.46499412 C4.58963647,4.93002353 4.07792029,4.95075882 3.59948647,5.20372941 C3.55788353,5.19958235 3.51628059,5.19958235 3.47467765,5.19958235 C3.37899088,3.63199412 4.18608794,2.33396471 4.96406294,0.965435294 C5.01814676,1.03178824 5.134635,1.03593529 5.17623794,0.957141176 C5.276085,0.766376471 5.38841294,0.575611765 5.43417618,0.368258824 C5.45081735,0.297758824 5.43001588,0.227258824 5.38841294,0.1692 C5.40089382,0.0157588235 5.19287912,-0.0713294118 5.07639088,0.0738176471 C5.04310853,0.115288235 5.01398647,0.160905882 4.98070412,0.206523529 C4.09872176,0.849317647 3.29994529,1.68702353 2.70918353,2.63255294 C1.97281147,3.25875882 1.45277471,4.10890588 1.31964529,5.06687647 C1.11163059,5.56867059 0.986821765,6.11608235 0.932737941,6.57225882 C0.787127647,7.7832 1.11995118,8.84484706 2.25987176,9.41299412 L2.25987176,9.41299412 Z M4.88917765,7.21505294 C4.88917765,7.27725882 4.73108647,7.33946471 4.70612471,7.40167059 C4.68532324,7.19846471 4.568835,6.98696471 4.47730853,6.78790588 C4.48978941,6.68008235 4.58963647,6.57640588 4.58963647,6.47687647 C4.70612471,6.70911176 4.88917765,6.95378824 4.88917765,7.20261176 L4.88917765,7.21505294 Z M4.60211735,5.63087647 C5.05142912,6.00825882 5.19703941,6.80034706 5.15959676,7.34775882 C5.15127618,7.5012 5.10967324,7.63390588 5.05142912,7.75417059 C5.05558941,7.72928824 5.05558941,7.70025882 5.05974971,7.67537647 C5.20536,7.32702353 5.18455853,6.94549412 5.05558941,6.5847 C5.05142912,6.54322941 5.04726882,6.49761176 5.04310853,6.45614118 C5.03062765,6.36490588 4.993185,6.27781765 4.94742176,6.19487647 C4.90581882,6.07046471 4.84757471,5.95434706 4.76020853,5.84652353 C4.65204088,5.70967059 4.44818647,5.5977 4.24849235,5.56452353 C4.19856882,5.53134706 4.14864529,5.50231765 4.09456147,5.47328824 C4.26929382,5.45255294 4.43986588,5.49402353 4.60211735,5.63087647 L4.60211735,5.63087647 Z M2.95880118,8.87802353 C3.25002176,8.93608235 3.55788353,8.91949412 3.80750118,8.83240588 C3.86990559,8.83240588 3.93231,8.82825882 3.99471441,8.82411176 C4.00719529,8.82411176 4.02383647,8.81996471 4.03631735,8.81581765 C3.79502029,9.02731765 3.51212029,9.1227 3.21673941,9.13099412 C3.22506,9.13099412 3.23338059,9.12684706 3.23754088,9.1227 C3.28330412,9.09367059 3.26666294,9.03146471 3.21673941,9.02731765 C3.02120559,9.01902353 2.85479382,8.9817 2.70918353,8.92364118 C2.78822912,8.92364118 2.871435,8.90705294 2.95880118,8.87802353 L2.95880118,8.87802353 Z M2.53861147,4.97564118 C2.54277176,4.96734706 2.54277176,4.95490588 2.54693206,4.94246471 C2.54277176,5.13737647 2.55109235,5.33228824 2.57605412,5.5272 C2.55525265,5.53964118 2.53861147,5.55208235 2.51781,5.56037647 C2.51781,5.36546471 2.52197029,5.1747 2.53861147,4.97564118 L2.53861147,4.97564118 Z M1.41533206,7.5012 C1.46941588,7.54681765 1.55678206,7.50534706 1.54014088,7.42655294 C1.45277471,7.04087647 1.46109529,6.66764118 1.52766,6.3027 C1.51933941,6.39393529 1.51933941,6.48931765 1.52349971,6.5847 C1.52349971,6.61372941 1.51933941,6.64275882 1.51933941,6.66764118 C1.47773647,6.83767059 1.48189676,7.00355294 1.52349971,7.16528824 C1.56094235,7.68367059 1.67743059,8.21034706 1.88544529,8.61261176 C1.56094235,8.32231765 1.42365265,7.90761176 1.38621,7.46802353 C1.39453059,7.48046471 1.40285118,7.48875882 1.41533206,7.5012 L1.41533206,7.5012 Z" id="Fill-11" fill="#020303" mask="url(#mask-31)"></path>
                                </g>
                            </g>
                        </g>
                    </g>
                </g>
            </g>
            <g id="iPhone-X/Status-Bars/Status-Bar-(White)" mask="url(#mask-29)">
                <g transform="translate(0.467181, 0.000000)" id="iPhone-X/Status-Bars/Status-Bar-(Black)">
                    <g>
                        <rect id="Rectangle" x="0" y="0" width="562.5" height="66"></rect>
                        <g id="Battery" transform="translate(504.000000, 25.500000)">
                            <rect id="Border" stroke="#FFFFFF" stroke-width="1.5" opacity="0.35" x="0.75" y="1.25" width="31.5" height="15.5" rx="4.00000012"></rect>
                            <path d="M34.5,6 L34.5,12 C35.7070967,11.4918352 36.492057,10.3096999 36.492057,9 C36.492057,7.69030008 35.7070967,6.50816477 34.5,6" id="Cap" fill="#FFFFFF" fill-rule="nonzero" opacity="0.4"></path>
                            <rect id="Capacity" fill="#FFFFFF" fill-rule="nonzero" x="3" y="3.5" width="27" height="11" rx="2.00000006"></rect>
                        </g>
                        <path d="M484.9955,29.412 C488.319339,29.4121456 491.516079,30.689302 493.925,32.9795 C494.106398,33.1563119 494.396343,33.1540815 494.575,32.9745 L496.309,31.2245 C496.399462,31.1334168 496.449898,31.0100392 496.449147,30.8816687 C496.448397,30.7532982 496.396521,30.630519 496.305,30.5405 C489.982353,24.4811787 480.007647,24.4811787 473.685,30.5405 C473.593412,30.6304522 473.541446,30.7531941 473.540602,30.8815648 C473.539757,31.0099355 473.590104,31.1333505 473.6805,31.2245 L475.415,32.9745 C475.593543,33.1543525 475.883712,33.1565846 476.065,32.9795 C478.474228,30.6891517 481.671335,29.4119916 484.9955,29.412 L484.9955,29.412 Z M484.9955,35.1055 C486.821734,35.1053881 488.582797,35.7841868 489.9365,37.01 C490.119595,37.1839708 490.408017,37.1801992 490.5865,37.0015 L492.3185,35.2515 C492.409711,35.1597075 492.46032,35.035183 492.459005,34.9057859 C492.457689,34.7763888 492.404559,34.652919 492.3115,34.563 C488.189202,30.7284265 481.805298,30.7284265 477.683,34.563 C477.589883,34.6529179 477.536756,34.7764495 477.535534,34.9058885 C477.534312,35.0353274 477.585098,35.1598401 477.6765,35.2515 L479.408,37.0015 C479.586483,37.1801992 479.874905,37.1839708 480.058,37.01 C481.410808,35.7849967 483.170473,35.1062562 484.9955,35.1055 L484.9955,35.1055 Z M488.324,39.282 C488.41663,39.191091 488.467642,39.0659878 488.464992,38.9362276 C488.462342,38.8064673 488.406264,38.6835512 488.31,38.5965 C486.396643,36.9781742 483.594357,36.9781742 481.681,38.5965 C481.584669,38.6834812 481.5285,38.8063586 481.525755,38.9361195 C481.52301,39.0658805 481.573933,39.1910231 481.6665,39.282 L484.663,42.3055 C484.750825,42.3943585 484.870564,42.4443665 484.9955,42.4443665 C485.120436,42.4443665 485.240175,42.3943585 485.328,42.3055 L488.324,39.282 Z" id="Wifi" fill="#FFFFFF" fill-rule="nonzero"></path>
                        <path d="M442,36.5 L443.5,36.5 C444.328427,36.5 445,37.1715729 445,38 L445,41 C445,41.8284271 444.328427,42.5 443.5,42.5 L442,42.5 C441.171573,42.5 440.5,41.8284271 440.5,41 L440.5,38 C440.5,37.1715729 441.171573,36.5 442,36.5 L442,36.5 Z M449,33.5 L450.5,33.5 C451.328427,33.5 452,34.1715729 452,35 L452,41 C452,41.8284271 451.328427,42.5 450.5,42.5 L449,42.5 C448.171573,42.5 447.5,41.8284271 447.5,41 L447.5,35 C447.5,34.1715729 448.171573,33.5 449,33.5 Z M456,30 L457.5,30 C458.328427,30 459,30.6715729 459,31.5 L459,41 C459,41.8284271 458.328427,42.5 457.5,42.5 L456,42.5 C455.171573,42.5 454.5,41.8284271 454.5,41 L454.5,31.5 C454.5,30.6715729 455.171573,30 456,30 Z M463,26.5 L464.5,26.5 C465.328427,26.5 466,27.1715729 466,28 L466,41 C466,41.8284271 465.328427,42.5 464.5,42.5 L463,42.5 C462.171573,42.5 461.5,41.8284271 461.5,41 L461.5,28 C461.5,27.1715729 462.171573,26.5 463,26.5 L463,26.5 Z" id="Cellular-Connection" fill="#FFFFFF" fill-rule="nonzero"></path>
                        <g id="iPhone-X/Overrides/Time-White" transform="translate(31.500000, 19.500000)" fill="#FFFFFF" font-family="Helvetica" font-size="21" font-weight="normal" letter-spacing="-0.420000002">
                            <text id="-Time">
                                <tspan x="20.6939648" y="23.8555556">9:4</tspan>
                                <tspan x="48.6268359" y="23.8555556">1</tspan>
                            </text>
                        </g>
                    </g>
                </g>
            </g>
        </g>
    </g>
</svg>